<?xml version="1.0" encoding="utf-8"?>
<!-- Generator: Adobe Illustrator 25.2.3, SVG Export Plug-In . SVG Version: 6.00 Build 0)  -->
<svg version="1.1" id="Layer_1" xmlns="http://www.w3.org/2000/svg" xmlns:xlink="http://www.w3.org/1999/xlink" x="0px" y="0px"
	 viewBox="0 0 241 290" style="enable-background:new 0 0 241 290;" xml:space="preserve">
<style type="text/css">
	.st0{fill:url(#SVGID_1_);stroke:#EAEAEA;stroke-width:0.75;stroke-miterlimit:10;}
</style>
<radialGradient id="SVGID_1_" cx="171" cy="288" r="297.7957" gradientTransform="matrix(1 0 0 1 0 -238)" gradientUnits="userSpaceOnUse">
	<stop  offset="0" style="stop-color:#FBFBFB"/>
	<stop  offset="0.3269" style="stop-color:#F8F8F8"/>
	<stop  offset="0.4867" style="stop-color:#E0E0E0"/>
	<stop  offset="0.5405" style="stop-color:#D4D4D4"/>
	<stop  offset="0.6312" style="stop-color:#C3C3C3"/>
	<stop  offset="0.694" style="stop-color:#B1B1B1"/>
	<stop  offset="0.7264" style="stop-color:#B5B5B5"/>
	<stop  offset="0.7575" style="stop-color:#C0C0C0"/>
	<stop  offset="0.7879" style="stop-color:#D4D4D4"/>
	<stop  offset="0.8017" style="stop-color:#DFDFDF"/>
	<stop  offset="0.8098" style="stop-color:#BBBBBB"/>
	<stop  offset="0.8285" style="stop-color:#F2F2F2"/>
	<stop  offset="0.8319" style="stop-color:#DFDFDF"/>
	<stop  offset="0.8654" style="stop-color:#F0F0F0"/>
	<stop  offset="0.866" style="stop-color:#727272"/>
	<stop  offset="0.8905" style="stop-color:#ADADAD"/>
	<stop  offset="0.9248" style="stop-color:#747474"/>
	<stop  offset="0.9459" style="stop-color:#7B7B7B"/>
	<stop  offset="0.961" style="stop-color:#868686"/>
</radialGradient>
<path class="st0" d="M100,16.4c4.7-1.5,12-3,12-3l10-1l13,1.2l17.5,5.5l7.8,4l11.3,7.8l11.3,10.6l12.2,14.2l10.8,15.6l5.2,10.4
	l6.5,15.9l6.6,21.2l2.5,13.7l1.8,25.3l-2.2,23.3l-3.8,16.6l-9.4,23l-11.4,16.8l-11,12.3l-15.1,12.7l-17,8.2l-23.4,5.8l-8.1,1h-7.4
	c0,0-9.8-0.5-10.2-0.6s-10.8-1.5-10.8-1.5l-15.6-5.1L66,261.6l-21.7-17.4l-6.3-7l-7.2-10.7l-6.1-11.2l-5.3-12.9l-3.6-12.5l-1.9-9.3
	l-0.7-7.1l-0.8-9V144l1.9-11.2l3.4-16.1l3.6-11.4l4.9-11.8L32.6,80l9.5-14.8l12.2-15.9l7.7-8l5.4-5.3L78,27.5l7.3-4.6l2.9-1.5
	L100,16.4z"/>
</svg>
